<svg id="visual" viewBox="0 0 900 600" width="900" height="600" xmlns="http://www.w3.org/2000/svg" xmlns:xlink="http://www.w3.org/1999/xlink" version="1.1"><rect x="0" y="0" width="900" height="600" fill="#140021"></rect><path d="M0 293L129 293L129 286L257 286L257 380L386 380L386 353L514 353L514 354L643 354L643 303L771 303L771 249L900 249L900 363L900 601L900 601L771 601L771 601L643 601L643 601L514 601L514 601L386 601L386 601L257 601L257 601L129 601L129 601L0 601Z" fill="#9900ff"></path><path d="M0 365L129 365L129 441L257 441L257 444L386 444L386 436L514 436L514 423L643 423L643 440L771 440L771 427L900 427L900 465L900 601L900 601L771 601L771 601L643 601L643 601L514 601L514 601L386 601L386 601L257 601L257 601L129 601L129 601L0 601Z" fill="#7700c6"></path><path d="M0 499L129 499L129 445L257 445L257 497L386 497L386 517L514 517L514 530L643 530L643 479L771 479L771 469L900 469L900 480L900 601L900 601L771 601L771 601L643 601L643 601L514 601L514 601L386 601L386 601L257 601L257 601L129 601L129 601L0 601Z" fill="#560090"></path></svg>